<?xml version="1.0" encoding="utf-8"?>
<!-- Generator: Adobe Illustrator 21.1.0, SVG Export Plug-In . SVG Version: 6.00 Build 0)  -->
<svg version="1.1" id="Layer_1" xmlns="http://www.w3.org/2000/svg" xmlns:xlink="http://www.w3.org/1999/xlink" x="0px" y="0px"
	 viewBox="0 0 160 59" style="enable-background:new 0 0 160 59;" xml:space="preserve">
<style type="text/css">
	.st0{filter:url(#Adobe_OpacityMaskFilter);}
	.st1{fill:#FFFFFF;}
	.st2{fill-rule:evenodd;clip-rule:evenodd;fill:#FFFFFF;}
	.st3{mask:url(#SVGID_1_);fill:#2A2632;}
	.st4{fill-rule:evenodd;clip-rule:evenodd;fill:#2A2632;}
	.st5{fill:#2A2632;}
	.st6{display:none;fill:#020202;}
	.st7{fill:#130E0D;}
	.st8{fill:#1F5569;}
	.st9{fill:#C2000B;}
	.st10{fill:#808080;}
	.st11{fill:#37997F;}
	.st12{fill:url(#shape03_3_);}
	.st13{fill:url(#shape02_2_);}
	.st14{fill:url(#shape01_2_);}
	.st15{fill:url(#wave01_3_);}
	.st16{fill:url(#wave01_4_);}
	.st17{fill:#100D0E;}
	.st18{fill:url(#SVGID_2_);}
	.st19{opacity:8.000000e-02;fill:#070606;}
	.st20{fill:url(#SVGID_3_);}
	.st21{opacity:4.000000e-02;fill:#070606;}
	.st22{opacity:3.000000e-02;fill:#070606;}
	.st23{opacity:6.000000e-02;fill:#070606;}
	.st24{opacity:7.000000e-02;fill:#070606;}
	.st25{fill:url(#SVGID_4_);}
	.st26{opacity:2.000000e-02;fill:#FFFFFF;}
	.st27{opacity:4.000000e-02;fill:#FFFFFF;}
	.st28{fill:url(#SVGID_5_);}
	.st29{opacity:0.54;fill:url(#SVGID_6_);}
	.st30{fill:url(#SVGID_7_);}
	.st31{fill:url(#SVGID_8_);}
	.st32{fill-rule:evenodd;clip-rule:evenodd;fill:#251D1E;}
	.st33{fill-rule:evenodd;clip-rule:evenodd;fill:#221E2B;}
	.st34{fill:#221E2B;}
	.st35{fill:#0D1C23;}
	.st36{fill:none;stroke:#151011;stroke-width:0.5;stroke-miterlimit:10;}
</style>
<g>
	<g>
		<path class="st2" d="M111.8,47.2V0H98.4v1.6c2.4,0.9,4.6,2.2,6.5,3.9c1.8,1.7,3.3,3.6,4.5,5.8c1.1,2.1,1.9,4.4,2.2,6.8
			c0.4,2.4,0.4,4.8,0,7.1c-0.4,2.4-1.1,4.7-2.2,6.8c-1.1,2.2-2.7,4.1-4.5,5.8c-1.9,1.7-4.1,3-6.5,3.9V59h33.8V47.2H111.8z"/>
	</g>
	<g>
		<path class="st2" d="M98.1,1.5c-2.8-1-5.7-1.5-8.7-1.5c-4.2,0-8.4,0-12.5,0c-4.2,0-4.3,0-8.5,0H51.8c8.6,19.7,17,39.3,25.4,59h0.2
			v-0.1V43.4h12.1c3,0,5.9-0.4,8.7-1.5c0.1,0,0.1-0.1,0.2-0.1V1.6C98.3,1.6,98.2,1.5,98.1,1.5z M95.9,23.4c-0.2,0.9-0.5,1.8-1.1,2.5
			c-0.5,0.8-1.3,1.3-2.1,1.8c-1,0.5-2.2,0.7-3.3,0.7H77.3V15.4h12.1c1.1,0,2.3,0.2,3.3,0.7c0.8,0.4,1.5,1,2.1,1.8
			c0.5,0.8,0.9,1.6,1.1,2.5C96.1,21.4,96.1,22.4,95.9,23.4z"/>
	</g>
	<g>
		<polygon class="st2" points="44.4,21.5 39,33.8 49.8,33.8 		"/>
	</g>
	<g>
		<polygon class="st2" points="32.4,49 27.9,59 60.8,59 56.4,49 		"/>
	</g>
</g>
</svg>
