<svg id="Layer_1" data-name="Layer 1" xmlns="http://www.w3.org/2000/svg" viewBox="0 0 200 100"><defs><style>.cls-1,.cls-2{fill:#3d424c;}.cls-1{fill-rule:evenodd;}</style></defs><title>Artboard 4 copy 14</title><path class="cls-1" d="M80.51,67V21.7H67.61v1.54a19.4,19.4,0,0,1,10.5,9.34,21.23,21.23,0,0,1,2.13,6.53,22.22,22.22,0,0,1,0,6.83,21.42,21.42,0,0,1-2.11,6.54,19.55,19.55,0,0,1-10.53,9.35V78.3H100V67Z"/><path class="cls-1" d="M67.38,23.14A24.2,24.2,0,0,0,59,21.72q-6,0-12,0c-4,0-4.12,0-8.11,0h-16C31.15,40.57,39.22,59.45,47.29,78.3h.16v-15H59a23.8,23.8,0,0,0,8.38-1.42l.21-.09V23.24Zm-2.11,21a6.12,6.12,0,0,1-1,2.43,5.48,5.48,0,0,1-2,1.71,7,7,0,0,1-3.21.68H47.45V36.5H59a7,7,0,0,1,3.2.68,5.45,5.45,0,0,1,2,1.71,6.27,6.27,0,0,1,1,2.44A7.28,7.28,0,0,1,65.27,44.1Z"/><polygon class="cls-1" points="15.86 42.29 10.69 54.15 21.02 54.15 15.86 42.29"/><polygon class="cls-1" points="4.36 68.71 0 78.31 31.63 78.31 27.34 68.71 4.36 68.71"/><path class="cls-2" d="M109.46,32.68v4.64h-.84V27.06h3.48a3.9,3.9,0,0,1,2.53.72,2.57,2.57,0,0,1,.88,2.11,2.42,2.42,0,0,1-.47,1.46,2.68,2.68,0,0,1-1.33.94,2.24,2.24,0,0,1,1.37.86,2.69,2.69,0,0,1,.42,1.55v1a3,3,0,0,0,.11.86,1.33,1.33,0,0,0,.37.62v.17h-.86a1.4,1.4,0,0,1-.37-.71,4.22,4.22,0,0,1-.11-1v-.94a1.9,1.9,0,0,0-.61-1.49,2.47,2.47,0,0,0-1.7-.55Zm0-.72H112a3,3,0,0,0,2-.56,1.91,1.91,0,0,0,.64-1.51,1.94,1.94,0,0,0-.64-1.56,2.91,2.91,0,0,0-1.93-.55h-2.64Z"/><path class="cls-2" d="M122.23,37.47a3.06,3.06,0,0,1-2.38-1.06,3.86,3.86,0,0,1-.95-2.68v-.39a4,4,0,0,1,.94-2.72,2.92,2.92,0,0,1,2.28-1.08,2.83,2.83,0,0,1,2.21.89,3.4,3.4,0,0,1,.8,2.37v.72h-5.39v.2a3.36,3.36,0,0,0,.68,2.15,2.18,2.18,0,0,0,1.8.87,3.69,3.69,0,0,0,1.35-.22,2.63,2.63,0,0,0,1-.63l.36.58a3.05,3.05,0,0,1-1.09.72A4.18,4.18,0,0,1,122.23,37.47Zm-.11-7.2a2,2,0,0,0-1.57.71,3.06,3.06,0,0,0-.74,1.79v0h4.47V32.6a2.43,2.43,0,0,0-.58-1.66A2,2,0,0,0,122.12,30.27Z"/><path class="cls-2" d="M133.08,37.32q-.08-.39-.12-.67a4.63,4.63,0,0,1,0-.57,3.36,3.36,0,0,1-1.13,1,3.19,3.19,0,0,1-1.59.4,2.4,2.4,0,0,1-1.73-.59,2.1,2.1,0,0,1-.62-1.59,2,2,0,0,1,.91-1.69,4.25,4.25,0,0,1,2.47-.63h1.69V32a1.63,1.63,0,0,0-.53-1.28,2.14,2.14,0,0,0-1.47-.47,2.34,2.34,0,0,0-1.46.44,1.33,1.33,0,0,0-.58,1.09h-.78v0a1.83,1.83,0,0,1,.78-1.53,3.19,3.19,0,0,1,2.09-.67,3.07,3.07,0,0,1,2,.64,2.26,2.26,0,0,1,.77,1.84v3.75a6.61,6.61,0,0,0,0,.78,5,5,0,0,0,.15.75Zm-2.77-.6a3,3,0,0,0,1.61-.43,2.53,2.53,0,0,0,1-1.09V33.61h-1.7a3.1,3.1,0,0,0-1.84.49,1.45,1.45,0,0,0-.69,1.22,1.31,1.31,0,0,0,.43,1A1.69,1.69,0,0,0,130.31,36.72Z"/><path class="cls-2" d="M138.4,37.32h-.84v-11h.84Z"/><path class="cls-2" d="M150,37.47a3.06,3.06,0,0,1-2.38-1.06,3.86,3.86,0,0,1-.95-2.68v-.39a4,4,0,0,1,.94-2.72,2.92,2.92,0,0,1,2.28-1.08,2.83,2.83,0,0,1,2.21.89,3.4,3.4,0,0,1,.8,2.37v.72h-5.39v.2a3.36,3.36,0,0,0,.68,2.15,2.18,2.18,0,0,0,1.8.87,3.69,3.69,0,0,0,1.35-.22,2.63,2.63,0,0,0,1-.63l.36.58a3.05,3.05,0,0,1-1.09.72A4.18,4.18,0,0,1,150,37.47Zm-.11-7.2a2,2,0,0,0-1.57.71,3.06,3.06,0,0,0-.74,1.79v0h4.47V32.6a2.43,2.43,0,0,0-.58-1.66A2,2,0,0,0,149.9,30.27Z"/><path class="cls-2" d="M160.6,35.38a1.23,1.23,0,0,0-.44-.94,3.59,3.59,0,0,0-1.59-.65,5.33,5.33,0,0,1-2-.78,1.62,1.62,0,0,1-.65-1.38,1.84,1.84,0,0,1,.74-1.48,3,3,0,0,1,2-.6,3.07,3.07,0,0,1,2,.64,1.91,1.91,0,0,1,.72,1.6v0h-.78a1.41,1.41,0,0,0-.53-1.09,2.11,2.11,0,0,0-1.44-.47,2.08,2.08,0,0,0-1.39.4,1.19,1.19,0,0,0-.46.93,1.1,1.1,0,0,0,.4.87,3.91,3.91,0,0,0,1.59.6,5.18,5.18,0,0,1,2,.83,1.72,1.72,0,0,1,.68,1.43,1.86,1.86,0,0,1-.77,1.55,3.88,3.88,0,0,1-4.22-.07,1.88,1.88,0,0,1-.75-1.58v0h.78a1.39,1.39,0,0,0,.67,1.19,2.82,2.82,0,0,0,1.47.37,2.34,2.34,0,0,0,1.45-.4A1.19,1.19,0,0,0,160.6,35.38Z"/><path class="cls-2" d="M166.15,27.74v2h1.68v.69h-1.68v5a1.63,1.63,0,0,0,.27,1.06.91.91,0,0,0,.72.31l.4,0,.45-.06.13.63a2.22,2.22,0,0,1-.51.14,3.74,3.74,0,0,1-.61,0,1.58,1.58,0,0,1-1.25-.51,2.39,2.39,0,0,1-.45-1.61v-5H164v-.69h1.32v-2Z"/><path class="cls-2" d="M175.9,37.32q-.08-.39-.12-.67a4.63,4.63,0,0,1,0-.57,3.36,3.36,0,0,1-1.13,1,3.19,3.19,0,0,1-1.59.4,2.4,2.4,0,0,1-1.73-.59,2.1,2.1,0,0,1-.62-1.59,2,2,0,0,1,.91-1.69,4.25,4.25,0,0,1,2.47-.63h1.69V32a1.63,1.63,0,0,0-.53-1.28,2.14,2.14,0,0,0-1.47-.47,2.34,2.34,0,0,0-1.46.44,1.33,1.33,0,0,0-.58,1.09h-.78v0a1.83,1.83,0,0,1,.78-1.53,3.19,3.19,0,0,1,2.09-.67,3.07,3.07,0,0,1,2,.64,2.26,2.26,0,0,1,.77,1.84v3.75a6.61,6.61,0,0,0,0,.78,5,5,0,0,0,.15.75Zm-2.77-.6a3,3,0,0,0,1.61-.43,2.53,2.53,0,0,0,1-1.09V33.61H174a3.1,3.1,0,0,0-1.84.49,1.45,1.45,0,0,0-.69,1.22,1.31,1.31,0,0,0,.43,1A1.69,1.69,0,0,0,173.13,36.72Z"/><path class="cls-2" d="M181.6,27.74v2h1.68v.69H181.6v5a1.63,1.63,0,0,0,.27,1.06.91.91,0,0,0,.72.31l.4,0,.45-.06.13.63a2.22,2.22,0,0,1-.51.14,3.74,3.74,0,0,1-.61,0A1.58,1.58,0,0,1,181.2,37a2.39,2.39,0,0,1-.45-1.61v-5h-1.32v-.69h1.32v-2Z"/><path class="cls-2" d="M189.38,37.47A3.06,3.06,0,0,1,187,36.41a3.86,3.86,0,0,1-.95-2.68v-.39a4,4,0,0,1,.94-2.72,2.92,2.92,0,0,1,2.28-1.08,2.83,2.83,0,0,1,2.21.89,3.4,3.4,0,0,1,.8,2.37v.72H186.9v.2a3.36,3.36,0,0,0,.68,2.15,2.18,2.18,0,0,0,1.8.87,3.69,3.69,0,0,0,1.35-.22,2.63,2.63,0,0,0,1-.63l.36.58a3.05,3.05,0,0,1-1.09.72A4.18,4.18,0,0,1,189.38,37.47Zm-.11-7.2a2,2,0,0,0-1.57.71,3.06,3.06,0,0,0-.74,1.79v0h4.47V32.6a2.43,2.43,0,0,0-.58-1.66A2,2,0,0,0,189.28,30.27Z"/><path class="cls-2" d="M110,49.05a6.6,6.6,0,0,1-.85-1.29,2.77,2.77,0,0,1-.28-1.2,2.28,2.28,0,0,1,.63-1.72,2.37,2.37,0,0,1,1.72-.61,2.23,2.23,0,0,1,1.61.57,1.91,1.91,0,0,1,.6,1.44,1.87,1.87,0,0,1-.32,1.09,4.23,4.23,0,0,1-.92.92l-1.12.86L114,52.51a4,4,0,0,0,.54-1.12,4.5,4.5,0,0,0,.19-1.33h.78a5.13,5.13,0,0,1-.26,1.66,4.55,4.55,0,0,1-.74,1.37l1.3,1.52v0h-1l-.86-1a4.48,4.48,0,0,1-1.31.85,4,4,0,0,1-1.54.3,3.42,3.42,0,0,1-2.33-.75,2.54,2.54,0,0,1-.86-2,2.48,2.48,0,0,1,.51-1.53,7,7,0,0,1,1.48-1.39Zm1.1,5a3.33,3.33,0,0,0,1.27-.25,3.55,3.55,0,0,0,1.11-.72l-2.92-3.4-.06-.06,0-.05-.33.25a4.18,4.18,0,0,0-1.1,1.2,2.16,2.16,0,0,0-.28,1,2,2,0,0,0,.6,1.46A2.4,2.4,0,0,0,111.13,54.09Zm-1.37-7.53a2.38,2.38,0,0,0,.22,1,4.84,4.84,0,0,0,.68,1.07l1.25-.93a2,2,0,0,0,.58-.66,1.63,1.63,0,0,0,.17-.74,1.25,1.25,0,0,0-.37-.92,1.4,1.4,0,0,0-1-.37,1.38,1.38,0,0,0-1.11.46A1.69,1.69,0,0,0,109.76,46.55Z"/><path class="cls-2" d="M129.76,49.84h-5v4.82h-.84V44.39h6.55v.72h-5.71v4h5Z"/><path class="cls-2" d="M134.42,44.84h-.84V43.66h.84Zm0,9.82h-.84V47h.84Z"/><path class="cls-2" d="M138.95,47l.08,1.33a2.73,2.73,0,0,1,1-1.09,2.77,2.77,0,0,1,1.48-.38,2.35,2.35,0,0,1,1.89.76A3.59,3.59,0,0,1,144,50v4.65h-.85V50a2.78,2.78,0,0,0-.49-1.86,1.78,1.78,0,0,0-1.39-.54,2.19,2.19,0,0,0-1.45.47,2.61,2.61,0,0,0-.81,1.25v5.34h-.85V47Z"/><path class="cls-2" d="M152.51,54.66q-.08-.39-.12-.67a4.63,4.63,0,0,1,0-.57,3.36,3.36,0,0,1-1.13,1,3.19,3.19,0,0,1-1.59.4,2.4,2.4,0,0,1-1.73-.59,2.1,2.1,0,0,1-.62-1.59,2,2,0,0,1,.91-1.69,4.25,4.25,0,0,1,2.47-.63h1.69v-.95a1.63,1.63,0,0,0-.53-1.28,2.14,2.14,0,0,0-1.47-.47,2.34,2.34,0,0,0-1.46.44,1.33,1.33,0,0,0-.58,1.09h-.78v0a1.83,1.83,0,0,1,.78-1.53,3.19,3.19,0,0,1,2.09-.67,3.07,3.07,0,0,1,2,.64,2.26,2.26,0,0,1,.77,1.84v3.75a6.61,6.61,0,0,0,0,.78,5,5,0,0,0,.15.75Zm-2.77-.6a3,3,0,0,0,1.61-.43,2.53,2.53,0,0,0,1-1.09V50.95h-1.7a3.1,3.1,0,0,0-1.84.49,1.45,1.45,0,0,0-.69,1.22,1.31,1.31,0,0,0,.43,1A1.69,1.69,0,0,0,149.74,54.06Z"/><path class="cls-2" d="M157.64,47l.08,1.33a2.73,2.73,0,0,1,1-1.09,2.77,2.77,0,0,1,1.48-.38,2.35,2.35,0,0,1,1.89.76,3.59,3.59,0,0,1,.65,2.37v4.65h-.85V50a2.78,2.78,0,0,0-.49-1.86,1.78,1.78,0,0,0-1.39-.54,2.19,2.19,0,0,0-1.45.47,2.61,2.61,0,0,0-.81,1.25v5.34h-.85V47Z"/><path class="cls-2" d="M169.21,54.09a2.41,2.41,0,0,0,1.48-.48,1.56,1.56,0,0,0,.64-1.33h.75v0a2.09,2.09,0,0,1-.85,1.77,3.15,3.15,0,0,1-2,.71,2.9,2.9,0,0,1-2.41-1.07,4.28,4.28,0,0,1-.85-2.75v-.3A4.26,4.26,0,0,1,166.8,48a2.89,2.89,0,0,1,2.4-1.07,3,3,0,0,1,2.09.74,2.39,2.39,0,0,1,.81,1.95v0h-.75a1.86,1.86,0,0,0-.62-1.46,2.2,2.2,0,0,0-1.51-.55,2,2,0,0,0-1.82.88,3.88,3.88,0,0,0-.59,2.21V51a3.92,3.92,0,0,0,.59,2.23A2,2,0,0,0,169.21,54.09Z"/><path class="cls-2" d="M176.25,44.84h-.84V43.66h.84Zm0,9.82h-.84V47h.84Z"/><path class="cls-2" d="M184.86,54.66q-.08-.39-.12-.67a4.63,4.63,0,0,1,0-.57,3.36,3.36,0,0,1-1.13,1,3.19,3.19,0,0,1-1.59.4,2.4,2.4,0,0,1-1.73-.59,2.1,2.1,0,0,1-.62-1.59,2,2,0,0,1,.91-1.69A4.25,4.25,0,0,1,183,50.3h1.69v-.95a1.63,1.63,0,0,0-.53-1.28,2.14,2.14,0,0,0-1.47-.47,2.34,2.34,0,0,0-1.46.44,1.33,1.33,0,0,0-.58,1.09h-.78v0a1.83,1.83,0,0,1,.78-1.53,3.19,3.19,0,0,1,2.09-.67,3.07,3.07,0,0,1,2,.64,2.26,2.26,0,0,1,.77,1.84v3.75a6.61,6.61,0,0,0,0,.78,5,5,0,0,0,.15.75Zm-2.77-.6a3,3,0,0,0,1.61-.43,2.53,2.53,0,0,0,1-1.09V50.95H183a3.1,3.1,0,0,0-1.84.49,1.45,1.45,0,0,0-.69,1.22,1.31,1.31,0,0,0,.43,1A1.69,1.69,0,0,0,182.09,54.06Z"/><path class="cls-2" d="M190.19,54.66h-.84v-11h.84Z"/><path class="cls-2" d="M114.52,69.47a1.71,1.71,0,0,0-.63-1.37,5.78,5.78,0,0,0-2.19-.94,6.91,6.91,0,0,1-2.55-1.1,2.2,2.2,0,0,1-.87-1.83,2.31,2.31,0,0,1,1-1.92,4,4,0,0,1,2.49-.74,3.67,3.67,0,0,1,2.56.88,2.71,2.71,0,0,1,.94,2.15l0,0h-.78a2.19,2.19,0,0,0-.73-1.69,2.84,2.84,0,0,0-2-.66,3,3,0,0,0-1.93.55,1.68,1.68,0,0,0-.69,1.37,1.6,1.6,0,0,0,.64,1.29,6,6,0,0,0,2.21.91,6.42,6.42,0,0,1,2.52,1.14,2.35,2.35,0,0,1,.86,1.9,2.29,2.29,0,0,1-1,2,4.27,4.27,0,0,1-2.56.73,4.69,4.69,0,0,1-2.68-.77A2.47,2.47,0,0,1,108,69.12v0h.78a2,2,0,0,0,.9,1.77,3.81,3.81,0,0,0,2.11.58,3.33,3.33,0,0,0,2-.54A1.66,1.66,0,0,0,114.52,69.47Z"/><path class="cls-2" d="M121.4,72.14A3.06,3.06,0,0,1,119,71.08a3.86,3.86,0,0,1-.95-2.68V68A4,4,0,0,1,119,65.3a2.92,2.92,0,0,1,2.28-1.08,2.83,2.83,0,0,1,2.21.89,3.4,3.4,0,0,1,.8,2.37v.72h-5.39v.2a3.36,3.36,0,0,0,.68,2.15,2.18,2.18,0,0,0,1.8.87,3.69,3.69,0,0,0,1.35-.22,2.63,2.63,0,0,0,1-.63l.36.58a3.05,3.05,0,0,1-1.09.72A4.18,4.18,0,0,1,121.4,72.14Zm-.11-7.2a2,2,0,0,0-1.57.71,3.06,3.06,0,0,0-.74,1.79v0h4.47v-.21a2.43,2.43,0,0,0-.58-1.66A2,2,0,0,0,121.29,64.94Z"/><path class="cls-2" d="M130.93,65.09l-.63,0a1.91,1.91,0,0,0-1.31.45,2.46,2.46,0,0,0-.73,1.23V72h-.85V64.36h.74l.11,1.27v.08a2.74,2.74,0,0,1,.89-1.1,2.23,2.23,0,0,1,1.33-.4l.31,0,.25.05Z"/><path class="cls-2" d="M136.08,70.08l.25.9h0l.27-.9,2.07-5.72h.88L136.69,72H136l-2.91-7.63H134Z"/><path class="cls-2" d="M143.37,62.18h-.84V61h.84Zm0,9.82h-.84V64.36h.84Z"/><path class="cls-2" d="M150,71.42a2.41,2.41,0,0,0,1.48-.48,1.56,1.56,0,0,0,.64-1.33h.75v0a2.09,2.09,0,0,1-.85,1.77,3.15,3.15,0,0,1-2,.71,2.9,2.9,0,0,1-2.41-1.07,4.28,4.28,0,0,1-.85-2.75V68a4.26,4.26,0,0,1,.85-2.74,2.89,2.89,0,0,1,2.4-1.07,3,3,0,0,1,2.09.74,2.39,2.39,0,0,1,.81,1.95v0h-.75a1.86,1.86,0,0,0-.62-1.46,2.2,2.2,0,0,0-1.51-.55,2,2,0,0,0-1.82.88,3.88,3.88,0,0,0-.59,2.21v.3a3.92,3.92,0,0,0,.59,2.23A2,2,0,0,0,150,71.42Z"/><path class="cls-2" d="M158.94,72.14a3.06,3.06,0,0,1-2.38-1.06,3.86,3.86,0,0,1-.95-2.68V68a4,4,0,0,1,.94-2.72,2.92,2.92,0,0,1,2.28-1.08,2.83,2.83,0,0,1,2.21.89,3.4,3.4,0,0,1,.8,2.37v.72h-5.39v.2a3.36,3.36,0,0,0,.68,2.15,2.18,2.18,0,0,0,1.8.87,3.69,3.69,0,0,0,1.35-.22,2.63,2.63,0,0,0,1-.63l.36.58a3.05,3.05,0,0,1-1.09.72A4.18,4.18,0,0,1,158.94,72.14Zm-.11-7.2a2,2,0,0,0-1.57.71,3.06,3.06,0,0,0-.74,1.79v0H161v-.21a2.43,2.43,0,0,0-.58-1.66A2,2,0,0,0,158.83,64.94Z"/><path class="cls-2" d="M169.53,70.05a1.23,1.23,0,0,0-.44-.94,3.59,3.59,0,0,0-1.59-.65,5.33,5.33,0,0,1-2-.78,1.62,1.62,0,0,1-.65-1.38,1.84,1.84,0,0,1,.74-1.48,3,3,0,0,1,2-.6,3.07,3.07,0,0,1,2,.64,1.91,1.91,0,0,1,.72,1.6v0h-.78a1.41,1.41,0,0,0-.53-1.09,2.11,2.11,0,0,0-1.44-.47,2.08,2.08,0,0,0-1.39.4,1.19,1.19,0,0,0-.46.93,1.1,1.1,0,0,0,.4.87,3.91,3.91,0,0,0,1.59.6,5.18,5.18,0,0,1,2,.83,1.72,1.72,0,0,1,.68,1.43,1.86,1.86,0,0,1-.77,1.55,3.88,3.88,0,0,1-4.22-.07,1.88,1.88,0,0,1-.75-1.58v0h.78a1.39,1.39,0,0,0,.67,1.19,2.82,2.82,0,0,0,1.47.37A2.34,2.34,0,0,0,169,71,1.19,1.19,0,0,0,169.53,70.05Z"/></svg>