<?xml version="1.0" encoding="utf-8"?>
<!-- Generator: Adobe Illustrator 21.1.0, SVG Export Plug-In . SVG Version: 6.00 Build 0)  -->
<svg version="1.1" id="Layer_1" xmlns="http://www.w3.org/2000/svg" xmlns:xlink="http://www.w3.org/1999/xlink" x="0px" y="0px"
	 viewBox="0 0 24 24" style="enable-background:new 0 0 24 24;" xml:space="preserve">
<style type="text/css">
	.st0{filter:url(#Adobe_OpacityMaskFilter);}
	.st1{fill:#FFFFFF;}
	.st2{fill-rule:evenodd;clip-rule:evenodd;fill:#FFFFFF;}
	.st3{mask:url(#SVGID_1_);fill:#2A2632;}
	.st4{filter:url(#Adobe_OpacityMaskFilter_1_);}
	.st5{mask:url(#SVGID_2_);fill:#2A2632;}
	.st6{fill-rule:evenodd;clip-rule:evenodd;fill:#2A2632;}
	.st7{fill:#2A2632;}
	.st8{display:none;fill:#020202;}
	.st9{fill:#130E0D;}
	.st10{fill:#1F5569;}
	.st11{fill:#C2000B;}
	.st12{fill:#808080;}
	.st13{fill:#37997F;}
	.st14{fill:url(#shape03_3_);}
	.st15{fill:url(#shape02_2_);}
	.st16{fill:url(#shape01_2_);}
	.st17{fill:url(#wave01_3_);}
	.st18{fill:url(#wave01_4_);}
	.st19{fill:#100D0E;}
	.st20{fill:url(#SVGID_3_);}
	.st21{opacity:8.000000e-02;fill:#070606;}
	.st22{fill:url(#SVGID_4_);}
	.st23{opacity:4.000000e-02;fill:#070606;}
	.st24{opacity:3.000000e-02;fill:#070606;}
	.st25{opacity:6.000000e-02;fill:#070606;}
	.st26{opacity:7.000000e-02;fill:#070606;}
	.st27{fill:url(#SVGID_5_);}
	.st28{opacity:2.000000e-02;fill:#FFFFFF;}
	.st29{opacity:4.000000e-02;fill:#FFFFFF;}
	.st30{fill:url(#SVGID_6_);}
	.st31{opacity:0.54;fill:url(#SVGID_7_);}
	.st32{fill:url(#SVGID_8_);}
	.st33{fill:url(#SVGID_9_);}
	.st34{fill-rule:evenodd;clip-rule:evenodd;fill:#251D1E;}
	.st35{fill-rule:evenodd;clip-rule:evenodd;fill:#221E2B;}
	.st36{fill:#221E2B;}
	.st37{fill:#0D1C23;}
	.st38{fill:none;stroke:#151011;stroke-width:0.5;stroke-miterlimit:10;}
</style>
<path class="st7" d="M14.1,9.7c-0.1-0.1-0.3,0-0.4,0.1l-3.8,3.8c-0.1,0.1-0.1,0.3-0.1,0.4c0.1,0.1,0.2,0.2,0.3,0.2h3.8
	c0.2,0,0.4-0.2,0.4-0.4v-3.8C14.3,9.9,14.2,9.8,14.1,9.7z M13.6,13.6h-2.6l2.6-2.6L13.6,13.6L13.6,13.6z"/>
<path class="st7" d="M23.8,11.3c-0.1-0.1-0.3,0-0.4,0.1l-1.1,1.1V5.2c0-0.2-0.2-0.4-0.4-0.4h-2.7l1-1c0,0,0,0,0,0L21.2,3
	c0.2-0.2,0.3-0.5,0.3-0.8s-0.1-0.6-0.3-0.8l-1.1-1.1C19.9,0.2,19.6,0,19.4,0s-0.6,0.1-0.8,0.3l-0.9,0.9l-1.1,1.1l-2.5,2.5H3.1V1.4
	c0-0.2-0.2-0.4-0.4-0.4C1.2,1.1,0,2.3,0,3.8v15c0,0,0,0.1,0,0.1c0,0.6,0.3,1.3,0.8,1.7c0.5,0.5,1.2,0.8,1.9,0.8h10.8l-2,2
	c-0.1,0.1-0.1,0.3-0.1,0.4c0.1,0.1,0.2,0.2,0.3,0.2h12c0.2,0,0.4-0.2,0.4-0.4v-12C24,11.5,23.9,11.3,23.8,11.3z M17.9,2l1.6,1.6
	l-0.6,0.6l-1.6-1.6L17.9,2z M19.1,0.9c0.1-0.1,0.4-0.1,0.5,0l1.1,1.1c0.1,0.1,0.1,0.4,0,0.5L20,3.2l-1.6-1.6L19.1,0.9z M12.5,23.3
	l3.6-3.6c0,0,0,0,0,0l0,0l0,0c0.1-0.1,0.1-0.4,0-0.5c0,0,0,0-0.1,0c-0.1-0.1-0.3-0.1-0.4,0l-1.4,1.4H2.7c-1.1,0-1.9-0.8-2-1.9
	c0-0.1,0-0.1,0-0.2c0,0,0,0,0,0c0,0,0-0.1,0-0.1c0,0,0,0,0,0c0,0,0-0.1,0-0.1c0,0,0,0,0,0c0,0,0,0,0-0.1c0,0,0,0,0,0c0,0,0,0,0-0.1
	c0,0,0,0,0-0.1c0,0,0,0,0,0c0,0,0,0,0-0.1c0,0,0,0,0,0c0,0,0-0.1,0-0.1c0,0,0,0,0,0c0.3-0.6,0.8-1,1.4-1.1c0,0,0,0,0,0
	c0,0,0.1,0,0.1,0c0,0,0,0,0,0c0,0,0.1,0,0.1,0c0,0,0,0,0,0c0,0,0.1,0,0.1,0c0,0,0,0,0,0c0,0,0.1,0,0.1,0c0.2,0,0.4-0.2,0.4-0.4v-2.6
	c0-0.2-0.2-0.4-0.4-0.4s-0.4,0.2-0.4,0.4V16c-0.6,0.1-1.1,0.3-1.6,0.8c0,0-0.1,0.1-0.1,0.1V3.8c0-1,0.7-1.9,1.7-2v3.5v7.2v0
	c0,0.2,0.2,0.4,0.4,0.4s0.4-0.2,0.4-0.4v0V5.6h10.2l-1.9,1.9c-0.1,0.1-0.1,0.4,0,0.5c0.1,0.1,0.4,0.1,0.5,0l2.5-2.5c0,0,0,0,0,0
	l2.3-2.3l1.6,1.6L18.2,5c0,0,0,0,0,0l-7.1,7.1l-1.6-1.6l1.4-1.4c0.1-0.1,0.1-0.4,0-0.5c-0.1-0.1-0.4-0.1-0.5,0l-1.6,1.6c0,0,0,0,0,0
	c0,0,0,0,0,0c0,0,0,0,0,0c0,0,0,0,0,0c0,0,0,0,0,0c0,0,0,0,0,0c0,0,0,0,0,0c0,0,0,0,0,0l-0.7,1.9l-0.5,1.3c0,0,0,0,0,0.1H6.3
	c-0.2,0-0.4,0.2-0.4,0.4c0,0.2,0.2,0.4,0.4,0.4h9.8c0.2,0,0.4-0.2,0.4-0.4c0-0.2-0.2-0.4-0.4-0.4h-7l2.1-0.8c0,0,0,0,0,0
	c0,0,0,0,0,0c0,0,0,0,0,0c0,0,0,0,0,0c0,0,0,0,0,0c0,0,0,0,0,0c0,0,0,0,0,0c0,0,0,0,0,0l7.2-7.2h3.1v7.5l-5,5
	c-0.1,0.1-0.1,0.4,0,0.5c0,0,0,0,0,0c0.1,0.1,0.1,0.1,0.2,0.1c0.1,0,0.2,0,0.2-0.1c0,0,0,0,0,0l0,0c0,0,0,0,0,0l6.2-6.2v3.1h-0.6
	c-0.2,0-0.4,0.2-0.4,0.4c0,0.2,0.2,0.4,0.4,0.4h0.6v1.1h-0.6c-0.2,0-0.4,0.2-0.4,0.4c0,0.2,0.2,0.4,0.4,0.4h0.6v1.1h-0.6
	c-0.2,0-0.4,0.2-0.4,0.4c0,0.2,0.2,0.4,0.4,0.4h0.6v1.1h-0.6c-0.2,0-0.4,0.2-0.4,0.4c0,0.2,0.2,0.4,0.4,0.4h0.6v1.7H12.5z M9.4,12.8
	l-0.7-0.7l0.4-1l1.3,1.3L9.4,12.8z"/>
</svg>
