<?xml version="1.0" encoding="utf-8"?>
<!-- Generator: Adobe Illustrator 21.1.0, SVG Export Plug-In . SVG Version: 6.00 Build 0)  -->
<svg version="1.1" id="Layer_1" xmlns="http://www.w3.org/2000/svg" xmlns:xlink="http://www.w3.org/1999/xlink" x="0px" y="0px"
	 viewBox="0 0 24 24" style="enable-background:new 0 0 24 24;" xml:space="preserve">
<style type="text/css">
	.st0{filter:url(#Adobe_OpacityMaskFilter);}
	.st1{fill:#FFFFFF;}
	.st2{fill-rule:evenodd;clip-rule:evenodd;fill:#FFFFFF;}
	.st3{mask:url(#SVGID_1_);fill:#2A2632;}
	.st4{filter:url(#Adobe_OpacityMaskFilter_1_);}
	.st5{mask:url(#SVGID_2_);fill:#2A2632;}
	.st6{fill-rule:evenodd;clip-rule:evenodd;fill:#2A2632;}
	.st7{fill:#2A2632;}
	.st8{display:none;fill:#020202;}
	.st9{fill:#130E0D;}
	.st10{fill:#1F5569;}
	.st11{fill:#C2000B;}
	.st12{fill:#808080;}
	.st13{fill:#37997F;}
	.st14{fill:url(#shape03_3_);}
	.st15{fill:url(#shape02_2_);}
	.st16{fill:url(#shape01_2_);}
	.st17{fill:url(#wave01_3_);}
	.st18{fill:url(#wave01_4_);}
	.st19{fill:#100D0E;}
	.st20{fill:url(#SVGID_3_);}
	.st21{opacity:8.000000e-02;fill:#070606;}
	.st22{fill:url(#SVGID_4_);}
	.st23{opacity:4.000000e-02;fill:#070606;}
	.st24{opacity:3.000000e-02;fill:#070606;}
	.st25{opacity:6.000000e-02;fill:#070606;}
	.st26{opacity:7.000000e-02;fill:#070606;}
	.st27{fill:url(#SVGID_5_);}
	.st28{opacity:2.000000e-02;fill:#FFFFFF;}
	.st29{opacity:4.000000e-02;fill:#FFFFFF;}
	.st30{fill:url(#SVGID_6_);}
	.st31{opacity:0.54;fill:url(#SVGID_7_);}
	.st32{fill:url(#SVGID_8_);}
	.st33{fill:url(#SVGID_9_);}
	.st34{fill-rule:evenodd;clip-rule:evenodd;fill:#251D1E;}
	.st35{fill-rule:evenodd;clip-rule:evenodd;fill:#221E2B;}
	.st36{fill:#221E2B;}
	.st37{fill:#0D1C23;}
	.st38{fill:none;stroke:#151011;stroke-width:0.5;stroke-miterlimit:10;}
</style>
<g>
	<path class="st7" d="M22.2,6.3l-8.3-5.9c-0.2-0.1-0.4-0.2-0.7-0.2s-0.5,0.1-0.7,0.2L4.2,6.3C3.8,6.6,3.6,7.1,3.8,7.6
		s0.6,0.8,1.1,0.8h1.2v0.7c0.4-0.3,0.8-0.6,1.2-0.8V7.3H4.9l8.3-5.9l8.3,5.9h-2.4v10.6h-2.3c-0.2,0.4-0.5,0.8-0.8,1.2h3
		c0.7,0,1.2-0.5,1.2-1.2V8.5h1.2c0.5,0,1-0.3,1.1-0.8C22.7,7.1,22.6,6.6,22.2,6.3z"/>
	<path class="st7" d="M14.7,10.5c-1.1-1.1-2.6-1.7-4.2-1.7s-3.1,0.6-4.2,1.7C4.2,12.6,4.1,16,6,18.4L1.4,23l0.8,0.8l4.6-4.6
		c1.1,0.9,2.3,1.4,3.7,1.4c1.6,0,3.1-0.6,4.2-1.7c1.1-1.1,1.7-2.6,1.7-4.2C16.5,13.1,15.8,11.6,14.7,10.5z M13.9,18
		c-0.9,0.9-2.1,1.4-3.3,1.4c-1.2,0-2.4-0.5-3.3-1.4l0,0c-1.8-1.8-1.8-4.8,0-6.7c0.9-0.9,2.1-1.4,3.3-1.4c1.2,0,2.4,0.5,3.3,1.4
		C15.7,13.1,15.7,16.1,13.9,18z"/>
</g>
</svg>
