<?xml version="1.0" encoding="utf-8"?>
<!-- Generator: Adobe Illustrator 21.1.0, SVG Export Plug-In . SVG Version: 6.00 Build 0)  -->
<svg version="1.1" id="Layer_1" xmlns="http://www.w3.org/2000/svg" xmlns:xlink="http://www.w3.org/1999/xlink" x="0px" y="0px"
	 viewBox="0 0 24 24" style="enable-background:new 0 0 24 24;" xml:space="preserve">
<style type="text/css">
	.st0{filter:url(#Adobe_OpacityMaskFilter);}
	.st1{fill:#FFFFFF;}
	.st2{fill-rule:evenodd;clip-rule:evenodd;fill:#FFFFFF;}
	.st3{mask:url(#SVGID_1_);fill:#2A2632;}
	.st4{filter:url(#Adobe_OpacityMaskFilter_1_);}
	.st5{mask:url(#SVGID_2_);fill:#2A2632;}
	.st6{fill-rule:evenodd;clip-rule:evenodd;fill:#2A2632;}
	.st7{fill:#2A2632;}
	.st8{display:none;fill:#020202;}
	.st9{fill:#130E0D;}
	.st10{fill:#1F5569;}
	.st11{fill:#C2000B;}
	.st12{fill:#808080;}
	.st13{fill:#37997F;}
	.st14{fill:url(#shape03_3_);}
	.st15{fill:url(#shape02_2_);}
	.st16{fill:url(#shape01_2_);}
	.st17{fill:url(#wave01_3_);}
	.st18{fill:url(#wave01_4_);}
	.st19{fill:#100D0E;}
	.st20{fill:url(#SVGID_3_);}
	.st21{opacity:8.000000e-02;fill:#070606;}
	.st22{fill:url(#SVGID_4_);}
	.st23{opacity:4.000000e-02;fill:#070606;}
	.st24{opacity:3.000000e-02;fill:#070606;}
	.st25{opacity:6.000000e-02;fill:#070606;}
	.st26{opacity:7.000000e-02;fill:#070606;}
	.st27{fill:url(#SVGID_5_);}
	.st28{opacity:2.000000e-02;fill:#FFFFFF;}
	.st29{opacity:4.000000e-02;fill:#FFFFFF;}
	.st30{fill:url(#SVGID_6_);}
	.st31{opacity:0.54;fill:url(#SVGID_7_);}
	.st32{fill:url(#SVGID_8_);}
	.st33{fill:url(#SVGID_9_);}
	.st34{fill-rule:evenodd;clip-rule:evenodd;fill:#251D1E;}
	.st35{fill-rule:evenodd;clip-rule:evenodd;fill:#221E2B;}
	.st36{fill:#221E2B;}
	.st37{fill:#0D1C23;}
	.st38{fill:none;stroke:#151011;stroke-width:0.5;stroke-miterlimit:10;}
</style>
<g>
	<path class="st7" d="M6.9,20.9c-0.1,0.2-0.3,0.3-0.5,0.3c-0.1,0-0.2,0-0.3-0.1c-3.5-2-5.7-5.8-5.7-9.8c0-2.3,0.7-4.5,2-6.4L1.7,4.2
		C1.5,4,1.5,3.8,1.6,3.6C1.6,3.4,1.8,3.2,2,3.2l2.5-0.3c0.2,0,0.3,0,0.5,0.2c0.1,0.1,0.2,0.3,0.2,0.5L4.9,6c0,0.2-0.2,0.4-0.4,0.5
		c-0.1,0-0.1,0-0.2,0C4.2,6.5,4,6.5,3.9,6.4L3.3,5.7c-1.1,1.6-1.7,3.6-1.7,5.6c0,3.6,1.9,7,5.1,8.8C7,20.2,7,20.6,6.9,20.9L6.9,20.9
		z M22.5,10.7c-0.3,0-0.6,0.3-0.6,0.6v0c0,5.6-4.6,10.1-10.1,10.1c-0.2,0-0.4,0-0.6,0l0.2-0.9c0.1-0.2,0-0.4-0.2-0.6
		c-0.2-0.1-0.4-0.2-0.6-0.1l-2.2,1C8.1,21,8,21.1,8,21.3c0,0.2,0,0.3,0.1,0.5l1.5,2C9.7,23.9,9.9,24,10,24c0,0,0.1,0,0.1,0
		c0.2,0,0.4-0.2,0.4-0.4l0.3-1c0.3,0,0.6,0,0.9,0C18,22.6,23,17.5,23,11.3v0C23,11,22.8,10.7,22.5,10.7L22.5,10.7z M23.3,6
		c-0.2-0.1-0.4-0.2-0.6-0.1l-0.9,0.4C20,2.5,16.1,0,11.7,0c-2,0-4,0.5-5.7,1.5C5.8,1.7,5.7,2,5.9,2.3C6,2.6,6.4,2.7,6.7,2.5
		c1.5-0.9,3.3-1.4,5.1-1.4c3.9,0,7.4,2.2,9.1,5.6l-0.9,0.4c-0.2,0.1-0.3,0.3-0.3,0.5c0,0.2,0.1,0.4,0.3,0.5l2.2,1.1
		c0.1,0,0.2,0.1,0.3,0.1c0.1,0,0.2,0,0.2-0.1c0.2-0.1,0.3-0.2,0.3-0.4l0.6-2.4C23.6,6.3,23.5,6.1,23.3,6L23.3,6z M8.2,16
		c-0.3,0-0.6-0.3-0.6-0.6c0-0.3,0.3-0.6,0.6-0.6h3v-3.1h-0.9c-1.5,0-2.7-1.2-2.7-2.7c0-1.5,1.2-2.7,2.7-2.7h0.9V5.7
		c0-0.3,0.3-0.6,0.6-0.6c0.3,0,0.6,0.3,0.6,0.6v0.7h3c0.3,0,0.6,0.3,0.6,0.6c0,0.3-0.3,0.6-0.6,0.6h-3v3.1h0.9
		c1.5,0,2.7,1.2,2.7,2.7c0,1.5-1.2,2.7-2.7,2.7h-0.9v0.9c0,0.3-0.3,0.6-0.6,0.6c-0.3,0-0.6-0.3-0.6-0.6V16H8.2z M10.3,10.6h0.9V7.5
		h-0.9c-0.9,0-1.6,0.7-1.6,1.6C8.8,9.9,9.4,10.6,10.3,10.6L10.3,10.6z M12.3,14.9h0.9c0.9,0,1.6-0.7,1.6-1.6c0-0.9-0.7-1.6-1.6-1.6
		h-0.9V14.9z M12.3,14.9"/>
</g>
</svg>
