<?xml version="1.0" encoding="utf-8"?>
<!-- Generator: Adobe Illustrator 21.1.0, SVG Export Plug-In . SVG Version: 6.00 Build 0)  -->
<svg version="1.1" id="Layer_1" xmlns="http://www.w3.org/2000/svg" xmlns:xlink="http://www.w3.org/1999/xlink" x="0px" y="0px"
	 viewBox="0 0 24 24" style="enable-background:new 0 0 24 24;" xml:space="preserve">
<style type="text/css">
	.st0{filter:url(#Adobe_OpacityMaskFilter);}
	.st1{fill:#FFFFFF;}
	.st2{fill-rule:evenodd;clip-rule:evenodd;fill:#FFFFFF;}
	.st3{mask:url(#SVGID_1_);fill:#2A2632;}
	.st4{filter:url(#Adobe_OpacityMaskFilter_1_);}
	.st5{mask:url(#SVGID_2_);fill:#2A2632;}
	.st6{fill-rule:evenodd;clip-rule:evenodd;fill:#2A2632;}
	.st7{fill:#2A2632;}
	.st8{display:none;fill:#020202;}
	.st9{fill:#130E0D;}
	.st10{fill:#1F5569;}
	.st11{fill:#C2000B;}
	.st12{fill:#808080;}
	.st13{fill:#37997F;}
	.st14{fill:url(#shape03_3_);}
	.st15{fill:url(#shape02_2_);}
	.st16{fill:url(#shape01_2_);}
	.st17{fill:url(#wave01_3_);}
	.st18{fill:url(#wave01_4_);}
	.st19{fill:#100D0E;}
	.st20{fill:url(#SVGID_3_);}
	.st21{opacity:8.000000e-02;fill:#070606;}
	.st22{fill:url(#SVGID_4_);}
	.st23{opacity:4.000000e-02;fill:#070606;}
	.st24{opacity:3.000000e-02;fill:#070606;}
	.st25{opacity:6.000000e-02;fill:#070606;}
	.st26{opacity:7.000000e-02;fill:#070606;}
	.st27{fill:url(#SVGID_5_);}
	.st28{opacity:2.000000e-02;fill:#FFFFFF;}
	.st29{opacity:4.000000e-02;fill:#FFFFFF;}
	.st30{fill:url(#SVGID_6_);}
	.st31{opacity:0.54;fill:url(#SVGID_7_);}
	.st32{fill:url(#SVGID_8_);}
	.st33{fill:url(#SVGID_9_);}
	.st34{fill-rule:evenodd;clip-rule:evenodd;fill:#251D1E;}
	.st35{fill-rule:evenodd;clip-rule:evenodd;fill:#221E2B;}
	.st36{fill:#221E2B;}
	.st37{fill:#0D1C23;}
	.st38{fill:none;stroke:#151011;stroke-width:0.5;stroke-miterlimit:10;}
</style>
<g>
	<path class="st7" d="M2.9,23.9h15.8c0.2,0,0.4-0.2,0.4-0.4v-2h2c0.2,0,0.4-0.2,0.4-0.4V0.5c0-0.2-0.2-0.4-0.4-0.4H5.3
		c-0.2,0-0.4,0.2-0.4,0.4v2h-2c-0.2,0-0.4,0.2-0.4,0.4v20.6C2.5,23.7,2.7,23.9,2.9,23.9z M16,3.8l1.8,1.8H16V3.8z M5.7,0.9h15v19.8
		h-1.6V6.1c0-0.1,0-0.2-0.1-0.3l-3.2-3.2c-0.1-0.1-0.2-0.1-0.3-0.1H5.7V0.9z M3.3,3.3h11.9v2.8c0,0.2,0.2,0.4,0.4,0.4h2.8v16.6h-15
		V3.3z"/>
	<path class="st7" d="M13.7,9.3L7,16.1c-0.1,0.1-0.1,0.1-0.1,0.2l-0.8,3.1l-0.3,0.3l0.6,0.6l0.3-0.3l3.1-0.8c0.1,0,0.1-0.1,0.2-0.1
		l6.7-6.7c0.4-0.4,0.6-0.9,0.6-1.5c0-0.6-0.2-1.1-0.6-1.5C15.8,8.5,14.5,8.5,13.7,9.3z M9,17.5l4.4-4.4l0.6,0.6l-4.4,4.4L9,17.5z
		 M7.8,16.4l4.4-4.4l0.6,0.6L8.4,17L7.8,16.4z M12.8,11.4l0.4-0.4l1.8,1.8l-0.4,0.4L12.8,11.4z M7.5,17.1l1.4,1.4L7,19L7.5,17.1z
		 M16.1,11.7l-0.5,0.5l-1.8-1.8l0.5-0.5c0.5-0.5,1.3-0.5,1.8,0c0.2,0.2,0.4,0.6,0.4,0.9S16.3,11.5,16.1,11.7z"/>
	<rect x="6.1" y="20.7" class="st7" width="9.5" height="0.8"/>
	<rect x="4.8" y="8" transform="matrix(0.5547 -0.8321 0.8321 0.5547 -3.6149 10.1181)" class="st7" width="5.7" height="0.8"/>
	<path class="st7" d="M8.4,9.6c0,0.7,0.5,1.2,1.2,1.2c0.7,0,1.2-0.5,1.2-1.2c0-0.7-0.5-1.2-1.2-1.2C9,8.4,8.4,9,8.4,9.6z M9.6,9.2
		c0.2,0,0.4,0.2,0.4,0.4C10,9.8,9.8,10,9.6,10c-0.2,0-0.4-0.2-0.4-0.4C9.2,9.4,9.4,9.2,9.6,9.2z"/>
	<path class="st7" d="M6.9,7.2c0-0.7-0.5-1.2-1.2-1.2S4.5,6.6,4.5,7.2S5,8.4,5.7,8.4S6.9,7.9,6.9,7.2z M5.7,7.6
		c-0.2,0-0.4-0.2-0.4-0.4c0-0.2,0.2-0.4,0.4-0.4S6.1,7,6.1,7.2C6.1,7.5,5.9,7.6,5.7,7.6z"/>
</g>
</svg>
