<?xml version="1.0" encoding="utf-8"?>
<!-- Generator: Adobe Illustrator 21.1.0, SVG Export Plug-In . SVG Version: 6.00 Build 0)  -->
<svg version="1.1" id="Layer_1" xmlns="http://www.w3.org/2000/svg" xmlns:xlink="http://www.w3.org/1999/xlink" x="0px" y="0px"
	 viewBox="0 0 24 24" style="enable-background:new 0 0 24 24;" xml:space="preserve">
<style type="text/css">
	.st0{filter:url(#Adobe_OpacityMaskFilter);}
	.st1{fill:#FFFFFF;}
	.st2{fill-rule:evenodd;clip-rule:evenodd;fill:#FFFFFF;}
	.st3{mask:url(#SVGID_1_);fill:#2A2632;}
	.st4{filter:url(#Adobe_OpacityMaskFilter_1_);}
	.st5{mask:url(#SVGID_2_);fill:#2A2632;}
	.st6{fill-rule:evenodd;clip-rule:evenodd;fill:#2A2632;}
	.st7{fill:#2A2632;}
	.st8{display:none;fill:#020202;}
	.st9{fill:#130E0D;}
	.st10{fill:#1F5569;}
	.st11{fill:#C2000B;}
	.st12{fill:#808080;}
	.st13{fill:#37997F;}
	.st14{fill:url(#shape03_3_);}
	.st15{fill:url(#shape02_2_);}
	.st16{fill:url(#shape01_2_);}
	.st17{fill:url(#wave01_3_);}
	.st18{fill:url(#wave01_4_);}
	.st19{fill:#100D0E;}
	.st20{fill:url(#SVGID_3_);}
	.st21{opacity:8.000000e-02;fill:#070606;}
	.st22{fill:url(#SVGID_4_);}
	.st23{opacity:4.000000e-02;fill:#070606;}
	.st24{opacity:3.000000e-02;fill:#070606;}
	.st25{opacity:6.000000e-02;fill:#070606;}
	.st26{opacity:7.000000e-02;fill:#070606;}
	.st27{fill:url(#SVGID_5_);}
	.st28{opacity:2.000000e-02;fill:#FFFFFF;}
	.st29{opacity:4.000000e-02;fill:#FFFFFF;}
	.st30{fill:url(#SVGID_6_);}
	.st31{opacity:0.54;fill:url(#SVGID_7_);}
	.st32{fill:url(#SVGID_8_);}
	.st33{fill:url(#SVGID_9_);}
	.st34{fill-rule:evenodd;clip-rule:evenodd;fill:#251D1E;}
	.st35{fill-rule:evenodd;clip-rule:evenodd;fill:#221E2B;}
	.st36{fill:#221E2B;}
	.st37{fill:#0D1C23;}
	.st38{fill:none;stroke:#151011;stroke-width:0.5;stroke-miterlimit:10;}
</style>
<g>
	<path class="st7" d="M18.3,18.9l-3.4,1.4c-0.7,0.3-1.5,0.3-2.2,0.1l-8-2.6c-0.5-0.2-1.1-0.1-1.5,0.1L2.8,18
		c-0.2,0.1-0.3,0.3-0.2,0.5c0.1,0.2,0.3,0.3,0.5,0.2l0.3-0.1c0.3-0.1,0.7-0.2,1,0l8,2.6c0.4,0.1,0.8,0.2,1.2,0.2
		c0.5,0,1-0.1,1.5-0.3l3.4-1.4c0.2-0.1,0.3-0.3,0.2-0.5C18.7,18.9,18.5,18.8,18.3,18.9z"/>
	<path class="st7" d="M23.9,15.4L23.9,15.4c-0.4-0.8-1.2-1.3-2.1-1.1c0.1-0.3,0.1-0.7-0.1-1.1c-0.2-0.4-0.5-0.7-0.9-0.8c0,0,0,0,0,0
		c-0.3-0.1-0.7-0.1-1-0.1V9.8c0-0.2-0.2-0.4-0.4-0.4s-0.4,0.2-0.4,0.4v5.4l-3.4,1.2c-0.4,0.1-0.8,0.1-1.2,0l-4-1.4v-1.6l3.9,1.3
		c0.8,0.3,1.7-0.1,2-0.9h0.5c0.2,0,0.4-0.2,0.4-0.4V9c0-0.2-0.2-0.4-0.4-0.4h-4.1c-0.2,0-0.4,0.2-0.4,0.4v1.6l-1.9-0.7V6.9l4.3-2.9
		l4.3,2.9v1.6c0,0.2,0.2,0.4,0.4,0.4c0.2,0,0.4-0.2,0.4-0.4V7.4l1.1,0.7c0.1,0,0.1,0.1,0.2,0.1c0.1,0,0.3-0.1,0.3-0.2
		c0.1-0.2,0.1-0.4-0.1-0.5l-2.1-1.4V3c0-0.2-0.2-0.4-0.4-0.4h-2.3c-0.2,0-0.4,0.2-0.4,0.4v1L15,3.3c-0.1-0.1-0.3-0.1-0.4,0L8.2,7.5
		C8,7.6,7.9,7.9,8,8c0.1,0.2,0.4,0.2,0.5,0.1l1.1-0.7v2.1L8.3,9C8.3,9,8.2,9,8.2,9c-1.4-0.5-3-0.3-4.2,0.6l-3.8,2.5
		c-0.2,0.1-0.2,0.4-0.1,0.5c0.1,0.2,0.4,0.2,0.5,0.1l3.8-2.5c1.1-0.7,2.4-0.9,3.5-0.5c0.1,0,0.1,0,0.1,0.1l7.1,2.7
		c0.2,0.1,0.4,0.2,0.5,0.4c0.1,0.2,0.1,0.4,0,0.7c-0.2,0.4-0.6,0.6-1,0.5l-4.5-1.5c-0.4-0.1-0.7-0.1-1.1,0c-0.4,0.2-0.8,0.6-0.9,1
		c-0.2,0.8,0.2,1.6,1,1.8l5.1,1.8c0.5,0.2,1.1,0.2,1.7,0l5.9-2.1c0.5-0.2,1.1,0.1,1.3,0.6l0,0c0.1,0.3,0.1,0.6,0,0.8
		c-0.1,0.3-0.3,0.5-0.6,0.6l-3.1,1.3c-0.2,0.1-0.3,0.3-0.2,0.5c0.1,0.2,0.2,0.2,0.4,0.2c0.1,0,0.1,0,0.2,0l3.1-1.3
		c0.5-0.2,0.8-0.5,1-1C24,16.4,24,15.9,23.9,15.4z M16.9,3.4h1.6v2.1l-1.6-1V3.4z M15.4,11.7l-2.3-0.9V9.4h3.3v3.5
		c0-0.1,0-0.2-0.1-0.3C16.1,12.2,15.8,11.9,15.4,11.7z M8.9,13.8c0.1-0.2,0.2-0.4,0.4-0.5c0.1-0.1,0.2-0.1,0.4-0.1v1.5l-0.3-0.1
		C9,14.5,8.8,14.1,8.9,13.8z M19.9,13.2c0.2-0.1,0.5-0.2,0.7-0.1c0,0,0,0,0,0c0.2,0.1,0.3,0.2,0.4,0.4c0.1,0.2,0.1,0.4,0,0.6
		l-0.2,0.5L19.9,15L19.9,13.2L19.9,13.2z"/>
</g>
</svg>
