<?xml version="1.0" encoding="utf-8"?>
<!-- Generator: Adobe Illustrator 21.1.0, SVG Export Plug-In . SVG Version: 6.00 Build 0)  -->
<svg version="1.1" id="Layer_1" xmlns="http://www.w3.org/2000/svg" xmlns:xlink="http://www.w3.org/1999/xlink" x="0px" y="0px"
	 viewBox="0 0 24 24" style="enable-background:new 0 0 24 24;" xml:space="preserve">
<style type="text/css">
	.st0{filter:url(#Adobe_OpacityMaskFilter);}
	.st1{fill:#FFFFFF;}
	.st2{fill-rule:evenodd;clip-rule:evenodd;fill:#FFFFFF;}
	.st3{mask:url(#SVGID_1_);fill:#2A2632;}
	.st4{filter:url(#Adobe_OpacityMaskFilter_1_);}
	.st5{mask:url(#SVGID_2_);fill:#2A2632;}
	.st6{fill-rule:evenodd;clip-rule:evenodd;fill:#2A2632;}
	.st7{fill:#2A2632;}
	.st8{display:none;fill:#020202;}
	.st9{fill:#130E0D;}
	.st10{fill:#1F5569;}
	.st11{fill:#C2000B;}
	.st12{fill:#808080;}
	.st13{fill:#37997F;}
	.st14{fill:url(#shape03_3_);}
	.st15{fill:url(#shape02_2_);}
	.st16{fill:url(#shape01_2_);}
	.st17{fill:url(#wave01_3_);}
	.st18{fill:url(#wave01_4_);}
	.st19{fill:#100D0E;}
	.st20{fill:url(#SVGID_3_);}
	.st21{opacity:8.000000e-02;fill:#070606;}
	.st22{fill:url(#SVGID_4_);}
	.st23{opacity:4.000000e-02;fill:#070606;}
	.st24{opacity:3.000000e-02;fill:#070606;}
	.st25{opacity:6.000000e-02;fill:#070606;}
	.st26{opacity:7.000000e-02;fill:#070606;}
	.st27{fill:url(#SVGID_5_);}
	.st28{opacity:2.000000e-02;fill:#FFFFFF;}
	.st29{opacity:4.000000e-02;fill:#FFFFFF;}
	.st30{fill:url(#SVGID_6_);}
	.st31{opacity:0.54;fill:url(#SVGID_7_);}
	.st32{fill:url(#SVGID_8_);}
	.st33{fill:url(#SVGID_9_);}
	.st34{fill-rule:evenodd;clip-rule:evenodd;fill:#251D1E;}
	.st35{fill-rule:evenodd;clip-rule:evenodd;fill:#221E2B;}
	.st36{fill:#221E2B;}
	.st37{fill:#0D1C23;}
	.st38{fill:none;stroke:#151011;stroke-width:0.5;stroke-miterlimit:10;}
</style>
<g>
	<path class="st7" d="M20.6,9.2c0-4.8-3.8-8.6-8.6-8.6c-4.7,0-8.6,3.8-8.6,8.6v0C1.5,9.3,0,10.9,0,12.9v0.4c0,2,1.6,3.6,3.6,3.6h0.2
		l1.5,2.4c1.1,1.7,2.9,2.7,4.9,2.7h0.3c0.2,0.7,0.9,1.3,1.6,1.3c0.9,0,1.7-0.8,1.7-1.7c0-0.9-0.8-1.7-1.7-1.7
		c-0.8,0-1.5,0.6-1.6,1.3h-0.3c-1.7,0-3.3-0.9-4.2-2.3l-1.2-2h0.3c0.5,0,0.9-0.4,0.9-0.9v-6c0-0.5-0.4-0.9-0.9-0.9H4.3
		c0-4.3,3.5-7.7,7.7-7.7c4.3,0,7.7,3.4,7.7,7.7h-0.9c-0.5,0-0.9,0.4-0.9,0.9v6c0,0.5,0.4,0.9,0.9,0.9h1.5c2,0,3.6-1.6,3.6-3.6v-0.4
		C24,10.9,22.5,9.3,20.6,9.2L20.6,9.2z M12.2,20.8c0.5,0,0.9,0.4,0.9,0.9c0,0.5-0.4,0.9-0.9,0.9c-0.5,0-0.9-0.4-0.9-0.9
		C11.4,21.2,11.7,20.8,12.2,20.8L12.2,20.8z M5.1,10.1v6H3.6c-1.5,0-2.8-1.2-2.8-2.8v-0.4c0-1.5,1.2-2.8,2.8-2.8H5.1z M23.1,13.3
		c0,1.5-1.2,2.8-2.8,2.8h-1.5v-6h1.5c1.5,0,2.8,1.2,2.8,2.8V13.3z M23.1,13.3"/>
	<path class="st7" d="M15.6,3.9c0,0-0.1-0.1-0.2-0.1c-0.1,0-0.1-0.1-0.2-0.1c-0.2-0.1-0.5-0.1-0.6,0.1c-0.1,0.2-0.1,0.4,0.2,0.6
		c0,0,0.1,0.1,0.2,0.1c0.1,0,0.1,0.1,0.2,0.1c0.1,0,0.2,0.1,0.2,0.1c0.1,0,0.3-0.1,0.4-0.2C15.8,4.3,15.8,4,15.6,3.9L15.6,3.9z
		 M15.6,3.9"/>
	<path class="st7" d="M12,2.8c-1.8,0-3.5,0.8-4.7,2.2c-0.2,0.2-0.1,0.4,0,0.6c0.1,0.1,0.2,0.1,0.3,0.1c0.1,0,0.2,0,0.3-0.1
		c1-1.2,2.5-1.9,4.1-1.9c0.4,0,0.8,0,1.2,0.1c0.2,0,0.4-0.1,0.5-0.3c0.1-0.2-0.1-0.5-0.3-0.5C12.9,2.8,12.5,2.8,12,2.8L12,2.8z
		 M12,2.8"/>
</g>
</svg>
