<?xml version="1.0" encoding="utf-8"?>
<!-- Generator: Adobe Illustrator 21.1.0, SVG Export Plug-In . SVG Version: 6.00 Build 0)  -->
<svg version="1.1" id="Layer_1" xmlns="http://www.w3.org/2000/svg" xmlns:xlink="http://www.w3.org/1999/xlink" x="0px" y="0px"
	 viewBox="0 0 24 24" style="enable-background:new 0 0 24 24;" xml:space="preserve">
<style type="text/css">
	.st0{filter:url(#Adobe_OpacityMaskFilter);}
	.st1{fill:#FFFFFF;}
	.st2{fill-rule:evenodd;clip-rule:evenodd;fill:#FFFFFF;}
	.st3{mask:url(#SVGID_1_);fill:#2A2632;}
	.st4{filter:url(#Adobe_OpacityMaskFilter_1_);}
	.st5{mask:url(#SVGID_2_);fill:#2A2632;}
	.st6{fill-rule:evenodd;clip-rule:evenodd;fill:#2A2632;}
	.st7{fill:#2A2632;}
	.st8{display:none;fill:#020202;}
	.st9{fill:#130E0D;}
	.st10{fill:#1F5569;}
	.st11{fill:#C2000B;}
	.st12{fill:#808080;}
	.st13{fill:#37997F;}
	.st14{fill:url(#shape03_3_);}
	.st15{fill:url(#shape02_2_);}
	.st16{fill:url(#shape01_2_);}
	.st17{fill:url(#wave01_3_);}
	.st18{fill:url(#wave01_4_);}
	.st19{fill:#100D0E;}
	.st20{fill:url(#SVGID_3_);}
	.st21{opacity:8.000000e-02;fill:#070606;}
	.st22{fill:url(#SVGID_4_);}
	.st23{opacity:4.000000e-02;fill:#070606;}
	.st24{opacity:3.000000e-02;fill:#070606;}
	.st25{opacity:6.000000e-02;fill:#070606;}
	.st26{opacity:7.000000e-02;fill:#070606;}
	.st27{fill:url(#SVGID_5_);}
	.st28{opacity:2.000000e-02;fill:#FFFFFF;}
	.st29{opacity:4.000000e-02;fill:#FFFFFF;}
	.st30{fill:url(#SVGID_6_);}
	.st31{opacity:0.54;fill:url(#SVGID_7_);}
	.st32{fill:url(#SVGID_8_);}
	.st33{fill:url(#SVGID_9_);}
	.st34{fill-rule:evenodd;clip-rule:evenodd;fill:#251D1E;}
	.st35{fill-rule:evenodd;clip-rule:evenodd;fill:#221E2B;}
	.st36{fill:#221E2B;}
	.st37{fill:#0D1C23;}
	.st38{fill:none;stroke:#151011;stroke-width:0.5;stroke-miterlimit:10;}
</style>
<path class="st7" d="M21.7,7.4c0.2,0.4,0.6,0.8,1.1,0.8C23.5,8.1,24,7.6,24,7s-0.5-1.2-1.2-1.2c-0.5,0-0.9,0.3-1.1,0.8h-7.8
	C13.8,5.2,13.4,4,12.7,3l0.2-0.1c0.2,0.1,0.4,0.2,0.7,0.2c0.3,0,0.6-0.1,0.8-0.3l2.3,1.3c0,0.1,0,0.1,0,0.2c0,0.6,0.5,1.2,1.2,1.2
	c0.6,0,1.2-0.5,1.2-1.2c0-0.1,0-0.2-0.1-0.3l3.3-1.8c0.2,0.1,0.4,0.2,0.6,0.2c0.6,0,1.2-0.5,1.2-1.2S23.5,0,22.8,0
	c-0.6,0-1.2,0.5-1.2,1.2c0,0.1,0,0.2,0.1,0.3l-3.3,1.8c-0.2-0.1-0.4-0.2-0.6-0.2c-0.3,0-0.6,0.1-0.8,0.3l-2.3-1.3c0-0.1,0-0.1,0-0.2
	c0-0.6-0.5-1.2-1.2-1.2s-1.2,0.5-1.2,1.2c0,0.1,0,0.2,0,0.3l-0.3,0.1C10.9,0.9,9,0,7,0C3.1,0,0,3.1,0,7c0,3.3,2.3,6.1,5.4,6.8v1.3
	H3.9v0.8h0.8v5.8C4.6,23,5.7,24,7,24s2.3-1,2.3-2.3v-5.8h0.8v-0.8H8.5v-1.3c1.9-0.4,3.4-1.6,4.4-3.2c0.2,0.4,0.6,0.6,1,0.6
	c0.3,0,0.6-0.1,0.8-0.3l2.7,1c0,0,0,0.1,0,0.1c0,0.6,0.5,1.2,1.2,1.2c0.6,0,1.2-0.5,1.2-1.2c0,0,0,0,0-0.1l2.3-0.3
	c0.2,0.2,0.5,0.4,0.8,0.4c0.6,0,1.2-0.5,1.2-1.2s-0.5-1.2-1.2-1.2c-0.6,0-1.2,0.5-1.2,1.2c0,0,0,0,0,0.1l-2.3,0.3
	c-0.2-0.2-0.5-0.4-0.8-0.4c-0.3,0-0.6,0.1-0.8,0.3l-2.7-1c0,0,0-0.1,0-0.1c0-0.6-0.5-1.2-1.2-1.2c-0.1,0-0.2,0-0.3,0
	c0.2-0.5,0.2-1,0.3-1.6H21.7z M22.8,0.8c0.2,0,0.4,0.2,0.4,0.4s-0.2,0.4-0.4,0.4c-0.2,0-0.4-0.2-0.4-0.4S22.6,0.8,22.8,0.8z
	 M17.8,3.9c0.2,0,0.4,0.2,0.4,0.4c0,0.2-0.2,0.4-0.4,0.4s-0.4-0.2-0.4-0.4C17.4,4,17.6,3.9,17.8,3.9z M13.5,1.5
	c0.2,0,0.4,0.2,0.4,0.4s-0.2,0.4-0.4,0.4c-0.2,0-0.4-0.2-0.4-0.4S13.3,1.5,13.5,1.5z M22.8,10.5c0.2,0,0.4,0.2,0.4,0.4
	s-0.2,0.4-0.4,0.4c-0.2,0-0.4-0.2-0.4-0.4S22.6,10.5,22.8,10.5z M18.6,11.6c0.2,0,0.4,0.2,0.4,0.4c0,0.2-0.2,0.4-0.4,0.4
	s-0.4-0.2-0.4-0.4S18.4,11.6,18.6,11.6z M22.8,6.6c0.2,0,0.4,0.2,0.4,0.4s-0.2,0.4-0.4,0.4c-0.2,0-0.4-0.2-0.4-0.4
	S22.6,6.6,22.8,6.6z M13.1,6.6H12c-0.1-1.1-0.5-2-1.1-2.8l1.1-0.5C12.6,4.2,13.1,5.4,13.1,6.6z M7.3,6.6C7.1,6.1,6.7,5.8,6.2,5.8
	C5.6,5.8,5,6.3,5,7s0.5,1.2,1.2,1.2c0.5,0,0.9-0.3,1.1-0.8h3.9c-0.1,0.7-0.3,1.3-0.6,1.8L9.6,9C9.5,8.5,9,8.1,8.5,8.1
	c-0.6,0-1.2,0.5-1.2,1.2s0.5,1.2,1.2,1.2c0.5,0,0.9-0.3,1.1-0.7l0.5,0.1c-0.8,0.8-1.9,1.4-3.1,1.4c-2.3,0-4.3-1.9-4.3-4.3
	S4.6,2.7,7,2.7c1,0,1.8,0.3,2.5,0.8L9.2,3.7C9,3.6,8.8,3.5,8.5,3.5C7.9,3.5,7.4,4,7.4,4.6s0.5,1.2,1.2,1.2c0.6,0,1.2-0.5,1.2-1.2
	c0-0.1,0-0.2,0-0.3l0.5-0.2c0.6,0.7,1,1.5,1.1,2.5H7.3z M6.6,7c0,0.2-0.2,0.4-0.4,0.4S5.8,7.2,5.8,7S6,6.6,6.2,6.6S6.6,6.8,6.6,7z
	 M8.9,9.3c0,0.2-0.2,0.4-0.4,0.4c-0.2,0-0.4-0.2-0.4-0.4s0.2-0.4,0.4-0.4C8.7,8.9,8.9,9.1,8.9,9.3z M8.9,4.6C8.9,4.9,8.7,5,8.5,5
	C8.3,5,8.1,4.9,8.1,4.6s0.2-0.4,0.4-0.4C8.7,4.3,8.9,4.4,8.9,4.6z M8.5,21.7c0,0.9-0.7,1.5-1.5,1.5s-1.5-0.7-1.5-1.5v-5.8h3.1V21.7z
	 M7.7,15.1H6.2v-1.2c0.3,0,0.5,0,0.8,0s0.5,0,0.8,0V15.1z M7,13.2c-3.4,0-6.2-2.8-6.2-6.2S3.6,0.8,7,0.8c1.8,0,3.3,0.7,4.5,1.9
	l-1.1,0.5C9.4,2.4,8.2,1.9,7,1.9c-2.8,0-5,2.3-5,5s2.3,5,5,5c1.6,0,3.1-0.8,4-2l1.2,0.2C11.1,12,9.2,13.2,7,13.2z M13.9,9.7
	c0.2,0,0.4,0.2,0.4,0.4s-0.2,0.4-0.4,0.4s-0.4-0.2-0.4-0.4S13.7,9.7,13.9,9.7z M12.6,9.6l-1.2-0.2c0.3-0.6,0.5-1.3,0.6-2h1.2
	C13.1,8.1,12.9,8.9,12.6,9.6z"/>
</svg>
