<?xml version="1.0" encoding="utf-8"?>
<!-- Generator: Adobe Illustrator 21.1.0, SVG Export Plug-In . SVG Version: 6.00 Build 0)  -->
<svg version="1.1" id="Layer_1" xmlns="http://www.w3.org/2000/svg" xmlns:xlink="http://www.w3.org/1999/xlink" x="0px" y="0px"
	 viewBox="0 0 24 24" style="enable-background:new 0 0 24 24;" xml:space="preserve">
<style type="text/css">
	.st0{filter:url(#Adobe_OpacityMaskFilter);}
	.st1{fill:#FFFFFF;}
	.st2{fill-rule:evenodd;clip-rule:evenodd;fill:#FFFFFF;}
	.st3{mask:url(#SVGID_1_);fill:#2A2632;}
	.st4{filter:url(#Adobe_OpacityMaskFilter_1_);}
	.st5{mask:url(#SVGID_2_);fill:#2A2632;}
	.st6{fill-rule:evenodd;clip-rule:evenodd;fill:#2A2632;}
	.st7{fill:#2A2632;}
	.st8{display:none;fill:#020202;}
	.st9{fill:#130E0D;}
	.st10{fill:#1F5569;}
	.st11{fill:#C2000B;}
	.st12{fill:#808080;}
	.st13{fill:#37997F;}
	.st14{fill:url(#shape03_3_);}
	.st15{fill:url(#shape02_2_);}
	.st16{fill:url(#shape01_2_);}
	.st17{fill:url(#wave01_3_);}
	.st18{fill:url(#wave01_4_);}
	.st19{fill:#100D0E;}
	.st20{fill:url(#SVGID_3_);}
	.st21{opacity:8.000000e-02;fill:#070606;}
	.st22{fill:url(#SVGID_4_);}
	.st23{opacity:4.000000e-02;fill:#070606;}
	.st24{opacity:3.000000e-02;fill:#070606;}
	.st25{opacity:6.000000e-02;fill:#070606;}
	.st26{opacity:7.000000e-02;fill:#070606;}
	.st27{fill:url(#SVGID_5_);}
	.st28{opacity:2.000000e-02;fill:#FFFFFF;}
	.st29{opacity:4.000000e-02;fill:#FFFFFF;}
	.st30{fill:url(#SVGID_6_);}
	.st31{opacity:0.54;fill:url(#SVGID_7_);}
	.st32{fill:url(#SVGID_8_);}
	.st33{fill:url(#SVGID_9_);}
	.st34{fill-rule:evenodd;clip-rule:evenodd;fill:#251D1E;}
	.st35{fill-rule:evenodd;clip-rule:evenodd;fill:#221E2B;}
	.st36{fill:#221E2B;}
	.st37{fill:#0D1C23;}
	.st38{fill:none;stroke:#151011;stroke-width:0.5;stroke-miterlimit:10;}
</style>
<g>
	<path d="M12,19.5c-0.6,0-1.4-0.3-1.8-0.6c-0.4-0.3-2.7-2-4.5-3.5c-0.3-0.3-0.8-0.7-1.2-1.2c-0.3-0.3-0.6-0.7-0.8-0.8
		c-0.2-0.2-0.2-0.5-0.1-0.7c0.2-0.2,0.5-0.2,0.7-0.1c0.2,0.1,0.5,0.5,0.9,0.9c0.4,0.4,0.9,0.9,1.1,1.1c1.9,1.6,4.1,3.2,4.5,3.5
		c0.3,0.2,0.9,0.4,1.2,0.4c0.5,0,0.5-0.1,0.5-0.2c0.1-0.2,0.2-0.3,0.4-0.3c0.2,0,0.3,0,0.5,0.1c0.2,0.2,0.4,0.1,0.6,0.1
		c0.3-0.1,0.6-0.4,0.6-0.8c0-0.2,0.1-0.4,0.3-0.4c0.2-0.1,0.4,0,0.5,0.1c0.1,0.1,0.5,0.1,0.8,0c0.1-0.1,0.4-0.2,0.4-0.6
		c0-0.2,0.1-0.4,0.2-0.5c0.2-0.1,0.4-0.1,0.5,0c0.1,0.1,0.4,0,0.6-0.1c0.1-0.1,0.3-0.4,0.1-0.8c-0.4-0.8-2-2.1-3.5-3.3
		c-0.8-0.7-1.6-1.3-2.2-1.8c-0.1,0.1-0.3,0.1-0.4,0.1c-0.3,0.1-0.4,0.2-0.8,0.2c-0.8,1-1.8,1.4-2.9,1c-0.5-0.1-0.8-0.5-0.9-0.9
		c-0.2-1,0.7-2.4,1.4-3.1C10.7,5.7,11.9,5,14.2,6c2,0.9,3.9,1.6,4,1.6c0.3,0.1,0.4,0.4,0.3,0.6c-0.1,0.3-0.4,0.4-0.6,0.3
		c0,0-2-0.7-4-1.6C12,6.2,11.2,6.6,9.6,8.2c-0.7,0.7-1.2,1.7-1.1,2.1c0,0.1,0,0.1,0.2,0.2c0.5,0.2,1.2,0.3,1.9-0.8
		c0.1-0.1,0.2-0.2,0.4-0.2c0.3,0,0.4-0.1,0.7-0.2C11.8,9.2,12,9.2,12.3,9c0.2-0.1,0.4,0,0.5,0.1c0.5,0.5,1.4,1.2,2.3,2
		c1.6,1.3,3.3,2.7,3.8,3.7c0.3,0.7,0.2,1.5-0.4,1.9c-0.3,0.3-0.7,0.4-1.1,0.4c-0.1,0.4-0.4,0.7-0.8,0.9c-0.4,0.2-0.9,0.3-1.3,0.2
		c-0.2,0.4-0.6,0.8-1,1c-0.4,0.1-0.8,0.1-1.1,0C12.9,19.4,12.5,19.5,12,19.5z"/>
	<path d="M10,7.5H5.5C5.2,7.5,5,7.3,5,7s0.2-0.5,0.5-0.5H10c0.3,0,0.5,0.2,0.5,0.5S10.3,7.5,10,7.5z"/>
	<path d="M18.5,15.5c-0.2,0-0.3-0.1-0.4-0.2C18,15,18,14.7,18.3,14.6l1.5-1c0.2-0.2,0.5-0.1,0.7,0.1c0.2,0.2,0.1,0.5-0.1,0.7l-1.5,1
		C18.7,15.5,18.6,15.5,18.5,15.5z"/>
	<path d="M17,17c-0.1,0-0.2,0-0.3-0.1c-0.5-0.4-2.8-2.8-3.1-3c-0.2-0.2-0.2-0.5,0-0.7c0.2-0.2,0.5-0.2,0.7,0c1,1,2.6,2.7,2.9,3
		c0.2,0.2,0.3,0.5,0.1,0.7C17.3,16.9,17.1,17,17,17z"/>
	<path d="M15,18c-0.1,0-0.2,0-0.3-0.1c-0.7-0.6-2.5-2.5-2.6-2.6c-0.2-0.2-0.2-0.5,0-0.7c0.2-0.2,0.5-0.2,0.7,0
		c0.3,0.4,1.8,2,2.4,2.4c0.2,0.2,0.2,0.5,0.1,0.7C15.3,17.9,15.1,18,15,18z"/>
	<path d="M13,19c-0.1,0-0.2,0-0.3-0.1c-0.7-0.6-2.1-2.1-2.5-2.5c-0.2-0.2-0.2-0.5,0-0.7c0.2-0.2,0.5-0.2,0.7,0
		c0.3,0.3,1.7,1.9,2.5,2.5c0.2,0.2,0.2,0.5,0.1,0.7C13.3,18.9,13.1,19,13,19z"/>
	<path d="M3.5,14.5h-3C0.2,14.5,0,14.3,0,14V5c0-0.1,0.1-0.3,0.2-0.4c0.1-0.1,0.2-0.1,0.4-0.1c1,0.1,4.5,0.3,5.3,1.1
		C6,5.7,6,5.9,6,6c-0.2,2.6-2,7.9-2,8.1C3.9,14.4,3.7,14.5,3.5,14.5z M1,13.5h2.1C3.5,12.3,4.7,8.4,5,6.2C4.3,5.9,2.6,5.7,1,5.5
		V13.5z"/>
	<path d="M23.5,15.5h-3c-0.2,0-0.4-0.1-0.5-0.4c-0.4-1.3-2.3-6.9-2.9-7.9C17,7.1,17,7,17,6.9s0.1-0.2,0.3-0.3c0.1,0,2.3-1,6.2-1
		C23.8,5.5,24,5.7,24,6v9C24,15.3,23.8,15.5,23.5,15.5z M20.9,14.5H23v-8c-2.4,0.1-4,0.5-4.8,0.8C19,8.9,20.4,13,20.9,14.5z"/>
</g>
</svg>
