<?xml version="1.0" encoding="UTF-8"?>
<svg width="100px" height="100px" viewBox="0 0 100 100" version="1.1" xmlns="http://www.w3.org/2000/svg" xmlns:xlink="http://www.w3.org/1999/xlink">
    <!-- Generator: Sketch 51.2 (57519) - http://www.bohemiancoding.com/sketch -->
    <title>Artboard</title>
    <desc>Created with Sketch.</desc>
    <defs></defs>
    <g id="Artboard" stroke="none" stroke-width="1" fill="none" fill-rule="evenodd">
        <g id="logo" transform="translate(9.000000, 4.000000)" fill-rule="nonzero">
            <path d="M73.8139364,68.6578108 L41.901591,87 L41.901591,72.717322 L61.7853565,61.6014878 L73.8139364,68.6578108 Z M76,66.6493092 L76,28.2964931 L64.3270477,35.1509033 L64.3270477,59.805526 L76,66.6493092 Z M7.18606364,68.6578108 L39.098409,87 L39.098409,72.717322 L19.2041839,61.6014878 L7.18606364,68.6578108 Z M5,66.6493092 L5,28.2964931 L16.6729523,35.1509033 L16.6729523,59.805526 L5,66.6493092 Z M6.37021214,25.8097768 L39.098409,7 L39.098409,20.8044633 L18.1268415,32.5260361 L17.9594873,32.6216791 L6.37021214,25.8097768 Z M74.6297879,25.8097768 L41.901591,7 L41.901591,20.8044633 L62.8731585,32.5154091 L63.0405127,32.6110521 L74.6297879,25.8097768 Z" id="Shape" fill="#909093"></path>
            <path d="M39.6,69 L20,58.0768523 L20,36.4528302 L39.6,47.9157846 L39.6,69 Z M42.4,69 L62,58.0874367 L62,36.4528302 L42.4,47.9157846 L42.4,69 Z M21.3268657,33.9549011 L41,23 L60.6731343,33.9549011 L41,45.4601933 L21.3268657,33.9549011 Z" id="Shape" fill="#424243"></path>
        </g>
    </g>
</svg>